<?xml version="1.0" encoding="utf-8"?>
<!-- Generator: Adobe Illustrator 26.0.2, SVG Export Plug-In . SVG Version: 6.00 Build 0)  -->
<svg className="svg" version="1.1" id="Layer_2_copy" xmlns="http://www.w3.org/2000/svg" xmlns:xlink="http://www.w3.org/1999/xlink" x="0px"
	 y="0px" viewBox="0 0 884.12 143.89" style="enable-background:new 0 0 884.12 143.89;" xml:space="preserve">
<g>
	<g>
		<path className="white" d="M226.47,143.89h-39.72l-16.19-92.05h-1l-43.44,92.05H99.35L58.23,51.84h-1.26l-16.74,92.05H0L31.28,0h37.21l44.37,100.86
			h1L159.25,0h37.19L226.47,143.89z"/>
		<path className="white" d="M279.77,0h43.04v143.89h-43.04V0z"/>
		<path className="white" d="M693.43,143.89H578.07V0h113.36v16.38h-70.82v45.63h65.56v16.38h-65.56v49.58h72.82V143.89z"/>
		<path className="white" d="M884.12,143.89h-44.65l-49.94-67.54h-3.75v67.54h-43.04V0h59.56c48.55,0,72.82,12.27,72.82,36.82
			c0,11.14-3.59,19.54-10.76,25.19c-7.17,5.65-18.85,9.9-35.03,12.76L884.12,143.89z M785.77,63.14
			c16.68-0.15,28.74-1.94,36.16-5.36c7.42-3.43,11.14-9.66,11.14-18.69c0-8.66-3.38-14.83-10.13-18.52
			c-6.76-3.69-18.31-5.53-34.66-5.53h-2.5V63.14z"/>
	</g>
	<path className="white" d="M532.53,0c0,0-16.73,50.08-73.25,87.7c-56.51,37.62-49.32,56.19-49.32,56.19h-42.1c0,0,16.74-50.08,73.25-87.7
		S490.44,0,490.44,0H532.53z"/>
	<path className="red" d="M444.95,46.06c-2.24,1.55-4.56,3.13-6.96,4.73c-8.14,5.42-15.66,11.02-22.6,16.72C379.34,34.35,367.86,0,367.86,0h42.09
		C409.95,0,404.06,15.24,444.95,46.06z"/>
	<path className="red" d="M490.43,143.89c0,0,5.9-15.23-34.98-46.06c2.23-1.56,4.55-3.13,6.95-4.73c8.14-5.42,15.66-11.03,22.61-16.73
		c36.04,33.18,47.52,67.52,47.52,67.52H490.43z"/>
</g>
</svg>
